<?xml version="1.0" encoding="UTF-8" standalone="no"?>
<!-- Generator: Adobe Illustrator 15.0.2, SVG Export Plug-In . SVG Version: 6.00 Build 0)  -->

<svg
   version="1.1"
   id="レイヤー_1"
   x="0px"
   y="0px"
   width="2603.6223"
   height="388.996"
   viewBox="0 0 2603.6223 388.99601"
   enable-background="new 0 0 800 600"
   xml:space="preserve"
   sodipodi:docname="logo_1_0.svg"
   inkscape:export-filename="/home/kanta/Downloads/logo_1_0.png"
   inkscape:export-xdpi="96"
   inkscape:export-ydpi="96"
   inkscape:version="1.1.1 (3bf5ae0d25, 2021-09-20, custom)"
   xmlns:inkscape="http://www.inkscape.org/namespaces/inkscape"
   xmlns:sodipodi="http://sodipodi.sourceforge.net/DTD/sodipodi-0.dtd"
   xmlns="http://www.w3.org/2000/svg"
   xmlns:svg="http://www.w3.org/2000/svg"><defs
   id="defs873" /><sodipodi:namedview
   id="namedview871"
   pagecolor="#ffffff"
   bordercolor="#666666"
   borderopacity="1.0"
   inkscape:pageshadow="2"
   inkscape:pageopacity="0.0"
   inkscape:pagecheckerboard="0"
   showgrid="false"
   width="2200px"
   fit-margin-left="0"
   fit-margin-right="0"
   fit-margin-top="0"
   fit-margin-bottom="0"
   inkscape:zoom="0.2"
   inkscape:cx="1342.5"
   inkscape:cy="357.5"
   inkscape:window-width="1880"
   inkscape:window-height="1013"
   inkscape:window-x="20"
   inkscape:window-y="47"
   inkscape:window-maximized="1"
   inkscape:current-layer="レイヤー_1" />
<path
   fill="#0f42c2"
   d="M 161.175,0 C 71.664,0 0,74.669 0,164.185 V 388.996 H 127.218 V 204.389 c 0,-84.756 67.857,-155.458 152.612,-155.458 h 6.41 V 388.996 H 415.90499 V 0 Z"
   id="path868"
   inkscape:export-filename="/home/kanta/Downloads/text13484.png"
   inkscape:export-xdpi="96"
   inkscape:export-ydpi="96" />
<g
   aria-label="灘校パソコン研究部"
   id="text3355"
   style="font-size:240px;line-height:1.25;fill:#f4f5f6"><path
     d="m 461.14234,86.130271 c 13.68,6.24 30.24,16.799999 38.64,24.479999 l 10.08,-13.679999 c -8.16,-7.68 -24.96,-17.28 -38.88,-23.28 z m 3.36,128.639999 15.6,8.64 c 9.36,-22.08 20.16,-52.08 28.32,-77.28 l -14.4,-8.64 c -8.4,26.88 -20.64,58.56 -29.52,77.28 z m 63.84,-125.759999 h 19.68 v 22.559999 h -19.68 z m 32.88,0 h 20.16 v 22.559999 h -20.16 z m 95.04,-79.68 c -2.88,12.48 -7.92,30 -12.72,42.48 h -20.4 c 5.52,-14.4 10.08,-29.04 13.44,-42.48 l -16.08,-4.08 c -4.56,22.56 -13.2,50.88 -25.44,72.24 v -0.96 h -32.64 v -10.32 h 20.88 v -27.84 h 17.76 v -13.92 h -17.76 v -18.96 h -14.16 v 18.96 h -27.36 v -18.96 h -13.68 v 18.96 h -18.48 v 9.6 c -7.68,-7.44 -20.88,-16.8 -32.16,-22.8 l -10.56,11.52 c 12.24,7.2 26.4,18.24 33.36,26.16 l 9.36,-10.8 18.48,0.24 v 27.84 h 18.72 v 10.32 h -31.44 v 47.519999 h 31.44 v 12.48 h -31.2 v 13.44 h 31.2 c -0.24,4.32 -0.48,9.12 -1.2,13.68 h -34.8 v 14.16 h 30.96 c -5.28,12.96 -15.12,25.92 -33.6,36.48 3.12,2.4 8.64,8.88 10.56,12.24 17.28,-10.32 28.08,-23.04 34.56,-36.48 10.32,9.12 24.48,22.32 30.48,28.8 l 11.52,-12.72 c -5.52,-4.56 -25.68,-21.12 -35.52,-28.32 h 37.92 v -14.16 h -36.48 c 0.72,-4.56 1.2,-9.36 1.2,-13.68 h 31.68 v -13.44 h -31.68 v -12.48 h 32.64 V 94.530271 l 3.36,5.04 c 2.88,-4.08 5.76,-8.4 8.4,-12.96 V 226.29027 h 15.84 v -11.04 h 62.4 v -15.6 h -27.36 v -35.52 h 21.84 v -15.12 h -21.84 v -33.36 h 21.12 v -15.12 h -21.12 V 67.170271 h 23.76 v -15.36 h -22.8 c 4.32,-11.28 9.12,-25.68 13.2,-38.16 z m -87.12,29.04 v 15.84 h -27.36 v -15.84 z m 74.16,28.8 v 33.359999 h -20.64 V 67.170271 Z m -20.64,48.479999 h 20.64 v 33.36 h -20.64 z m 0,48.48 h 20.64 v 35.52 h -20.64 z"
     id="path2804" /><path
     d="m 820.66234,64.770271 c -7.68,17.28 -22.08,37.439999 -37.44,50.159999 3.84,2.64 9.6,7.68 12.48,11.04 16.08,-14.16 31.2,-34.559999 41.28,-54.479999 z m 49.92,7.2 c 15.36,15.84 32.16,37.679999 39.12,52.319999 l 15.12,-8.88 c -7.44,-14.64 -24.72,-35.759999 -40.32,-51.359999 z m -25.2,-66.48 v 35.28 h -56.64 v 16.8 h 131.76 v -16.8 h -57.6 v -35.28 z m 31.2,101.759999 c -4.8,17.76 -12.24,34.32 -22.8,49.44 -10.56,-14.4 -19.2,-30.72 -25.44,-48 l -15.6,4.32 c 7.44,21.12 17.52,40.8 30,57.6 -16.08,17.76 -37.2,32.4 -63.6,42.24 3.12,3.6 7.68,10.08 9.6,14.16 26.64,-10.32 48,-24.72 65.04,-42.72 16.32,18.48 36,33.12 58.8,42.48 2.88,-4.8 8.64,-12 12.72,-15.84 -23.28,-8.4 -43.44,-22.56 -60,-40.56 13.2,-17.52 22.8,-37.44 29.52,-59.28 z M 740.50234,5.490271 v 51.36 h -35.28 v 17.04 h 33.36 c -7.44,32.879999 -22.8,70.799999 -38.16,91.199999 3.12,4.08 7.44,11.04 9.36,15.84 11.52,-15.6 22.32,-41.28 30.72,-67.68 v 112.8 h 16.8 v -112.56 c 7.92,12.72 17.28,28.32 21.36,36.72 l 10.08,-13.92 c -4.32,-6.96 -24.48,-35.76 -31.44,-44.159999 v -18.24 h 29.28 v -17.04 h -29.28 v -51.36 z"
     id="path2806" /><path
     d="m 1120.6623,39.810271 c 0,-8.88 6.96,-16.08 15.84,-16.08 8.64,0 15.84,7.2 15.84,16.08 0,8.64 -7.2,15.84 -15.84,15.84 -8.88,0 -15.84,-7.2 -15.84,-15.84 z m -11.04,0 c 0,14.88 12,26.88 26.88,26.88 14.64,0 26.88,-12 26.88,-26.88 0,-14.88 -12.24,-27.12 -26.88,-27.12 -14.88,0 -26.88,12.24 -26.88,27.12 z M 985.06234,134.85027 c -8.4,20.16 -21.84,45.36 -36.96,65.28 l 20.4,8.64 c 13.44,-19.2 26.4,-43.92 35.27996,-66 10.08,-24.48 18.48,-59.999999 21.84,-74.879999 0.96,-5.28 2.88,-12.24 4.32,-17.52 l -21.36,-4.56 c -3.12,27.84 -13.19996,64.319999 -23.51996,89.039999 z m 118.07996,-9.12 c 10.08,25.68 21.12,58.08 27.12,82.56 l 21.36,-6.96 c -6.24,-21.6 -18.96,-58.32 -28.8,-82.08 -10.08,-25.439999 -25.44,-58.559999 -35.04,-75.839999 l -19.44,6.48 c 10.56,17.76 25.2,51.119999 34.8,75.839999 z"
     id="path2808" /><path
     d="m 1236.1023,198.45027 18,15.12 c 39.12,-18 66.24,-45.12 84.96,-73.92 17.52,-27.12 27.12,-57.119999 32.88,-85.679999 0.96,-4.32 2.88,-12.72 4.8,-18.96 l -24,-3.36 c 0.24,4.32 -0.72,13.44 -1.92,19.68 -3.84,22.32 -11.52,50.879999 -30,78.239999 -17.76,26.64 -44.88,52.56 -84.72,68.88 z m -14.64,-163.919999 -18.96,9.6 c 9.84,13.92 29.76,48 40.08,69.359999 l 19.2,-10.8 c -8.64,-15.599999 -29.76,-52.559999 -40.32,-68.159999 z"
     id="path2810" /><path
     d="m 1450.9023,174.93027 v 21.84 c 6.48,-0.48 17.28,-0.96 27.12,-0.96 h 117.36 l -0.48,13.44 h 21.6 c -0.24,-3.84 -0.96,-14.64 -0.96,-23.28 V 62.130271 c 0,-5.76 0.48,-13.2 0.72,-18.72 -4.8,0.24 -12,0.48 -17.76,0.48 h -118.32 c -7.68,0 -18.24,-0.48 -26.16,-1.44 v 21.36 c 5.52,-0.24 17.52,-0.72 26.4,-0.72 h 114.96 V 176.37027 h -117.84 c -10.08,0 -20.4,-0.72 -26.64,-1.44 z"
     id="path2812" /><path
     d="m 1707.2223,31.170271 -13.68,14.64 c 17.76,12 47.76,37.68 59.76,50.16 l 15.12,-15.12 c -13.44,-13.44 -44.16,-38.4 -61.2,-49.68 z m -20.64,160.799999 12.72,19.68 c 39.84,-7.44 70.32,-22.08 94.32,-37.2 36.24,-22.8 64.32,-55.44 80.64,-85.439999 l -11.52,-20.4 c -13.92,29.52 -43.2,65.039999 -80.16,88.319999 -22.8,14.16 -54,28.8 -96,35.04 z"
     id="path2814" /><path
     d="m 2078.7423,35.730271 v 69.119999 h -39.12 V 35.730271 Z m -83.04,69.119999 v 17.28 h 26.64 c -0.96,32.4 -6.48,69.12 -30.96,94.8 4.32,2.4 10.8,7.2 13.92,10.32 27.12,-28.08 33.12,-68.16 34.08,-105.12 h 39.36 v 104.16 h 17.28 v -104.16 h 27.12 v -17.28 h -27.12 V 35.730271 h 22.32 v -17.04 h -115.92 v 17.04 h 20.16 v 69.119999 z m -90.72,-86.159999 v 16.56 h 30 c -6.72,36.48 -17.76,70.559999 -34.56,93.119999 2.88,4.8 6.96,14.88 8.16,19.44 4.56,-6 8.88,-12.72 12.72,-19.68 v 87.12 h 15.36 v -19.2 h 48.72 V 92.130271 h -48.48 c 6.24,-17.76 11.28,-37.2 15.12,-56.88 h 37.44 v -16.56 z m 31.68,89.759999 h 32.64 v 71.52 h -32.64 z"
     id="path2816" /><path
     d="m 2228.7423,102.45027 v 28.8 0.72 h -69.12 v 16.8 h 67.2 c -5.28,22.32 -23.76,47.28 -83.52,63.6 4.08,4.08 9.6,10.32 12,14.64 66.96,-18.96 85.68,-49.68 90.24,-78.24 h 45.84 v 51.12 c 0,19.68 5.52,24.96 23.76,24.96 3.6,0 21.12,0 24.96,0 17.04,0 21.84,-9.12 23.76,-45.84 -5.04,-1.44 -13.2,-4.32 -17.28,-7.68 -0.48,31.44 -1.68,36 -8.4,36 -3.6,0 -17.76,0 -20.4,0 -6.72,0 -7.68,-0.96 -7.68,-7.68 v -67.68 h -63.36 v -0.48 -29.04 z m -77.52,-74.879999 v 43.44 h 18 v -27.12 h 45.12 c -4.32,32.16 -16.8,50.4 -66.72,59.519999 3.6,3.36 7.92,10.32 9.36,14.64 55.68,-11.76 70.8,-34.319999 76.32,-74.159999 h 36.96 v 42.72 c 0,17.759999 5.04,22.559999 25.92,22.559999 4.32,0 29.28,0 33.84,0 15.84,0 20.88,-5.52 22.8,-27.599999 -4.8,-1.2 -12.24,-3.84 -16.08,-6.72 -0.48,15.84 -1.92,18.24 -8.64,18.24 -5.04,0 -25.92,0 -30,0 -8.64,0 -9.84,-0.96 -9.84,-6.72 v -42.48 h 49.2 v 25.2 h 18.72 v -41.52 h -94.08 v -22.32 h -18.48 v 22.32 z"
     id="path2818" /><path
     d="m 2382.8223,98.610271 v 16.319999 h 124.08 V 98.610271 Z m 21.12,-42.24 c 4.8,12.48 9.12,28.56 10.08,39.36 l 16.08,-4.08 c -1.44,-10.32 -5.76,-26.4 -11.28,-38.4 z m 68.64,-4.8 c -2.88,12 -8.64,29.76 -13.44,40.8 l 14.64,4.08 c 5.04,-10.56 10.8,-26.64 16.08,-40.8 z m 44.16,-31.92 V 226.29027 h 17.52 V 36.690271 h 45.6 c -7.68,19.2 -18,45.36 -28.32,65.519999 24.48,21.12 31.44,39.36 31.68,54.24 0,8.88 -1.92,15.84 -6.96,19.2 -2.88,1.68 -6.48,2.4 -10.56,2.64 -4.56,0.24 -11.52,0.24 -18.72,-0.48 3.12,5.28 4.8,12.72 5.04,17.76 7.2,0.48 14.88,0.48 21.12,-0.24 6,-0.72 11.28,-2.4 15.6,-5.28 8.4,-5.52 12,-16.8 12,-31.68 -0.24,-17.04 -6.24,-36 -30.48,-58.559999 11.28,-21.84 23.76,-49.68 33.36,-72.48 l -12.96,-8.4 -3.12,0.72 z m -79.68,-13.2 v 25.68 h -48.24 v 16.08 h 114.72 v -16.08 h -48.96 v -25.68 z m -38.16,129.599999 v 90.48 h 16.8 v -14.16 h 60.24 v 12.96 h 17.52 v -89.28 z m 16.8,60.24 v -44.4 h 60.24 v 44.4 z"
     id="path2820" /></g><g
   aria-label="Nada Personal Computer users' Association"
   id="text13484"
   style="font-style:italic;font-size:106.667px;line-height:1.25;font-family:'Nimbus Sans';-inkscape-font-specification:'Nimbus Sans Italic';fill:#f4f5f6"><path
     d="m 575.96795,284.17613 h -9.49337 l -13.54671,63.78686 -26.66675,-63.78686 h -11.09336 l -16.53339,77.76024 h 9.49336 l 13.44005,-63.0402 26.56008,63.0402 h 11.3067 z"
     id="path4909" /><path
     d="m 625.8882,356.49635 c -0.96,0.21334 -1.38667,0.21334 -1.81334,0.21334 -2.24,0 -3.62667,-0.74667 -3.94668,-2.02668 -0.10666,-0.32 -0.10666,-0.64 -0.10666,-1.06667 0,-0.32 0,-0.74666 0.10666,-1.06667 l 6.82669,-32.10676 c 0.64,-2.88001 0.64,-2.88001 0.64,-3.94668 0,-5.22668 -4.37334,-9.7067 -10.77336,-11.20004 -2.45334,-0.53333 -5.12002,-0.85333 -7.78669,-0.85333 -14.93338,0 -23.89341,6.29335 -25.92008,18.13339 h 8.96002 c 0.96001,-2.98668 1.70668,-4.48002 3.20001,-5.97335 2.34668,-2.45335 6.82669,-3.94668 11.41337,-3.94668 4.80002,0 8.85336,1.6 10.56004,4.26668 0.53333,0.74667 0.74666,1.6 0.74666,2.56 0,0.42667 -0.10666,1.17334 -0.21333,2.02668 l -0.32,1.92 c -0.74667,4.16002 -3.09334,5.65335 -10.77337,6.29336 -10.6667,0.96 -15.36005,1.70667 -19.20006,3.20001 -6.93335,2.66667 -11.41337,7.36002 -13.01337,13.54671 -0.32,1.38667 -0.53334,2.88 -0.53334,4.26668 0,6.08001 2.98668,10.6667 8.21336,12.48003 2.13334,0.74667 4.58668,1.17334 7.04002,1.17334 3.94668,0 8.21336,-0.74667 12.16004,-2.13334 3.30668,-1.17334 5.01335,-2.24001 9.3867,-6.08002 v 0.74667 0.42667 c 0,3.09334 1.6,5.54668 4.16001,6.40002 1.17334,0.42667 2.56001,0.64 3.94668,0.64 1.28,0 1.60001,0 4.16001,-0.64 0.32,-0.10667 0.85334,-0.21333 1.49334,-0.32 z m -12.9067,-12.05337 c -1.38668,6.61336 -10.77337,12.26671 -20.16007,12.26671 -3.73334,0 -6.50668,-0.96001 -8.00002,-2.66668 -0.96001,-1.17333 -1.49334,-2.66667 -1.49334,-4.37334 0,-3.52002 2.02667,-7.04003 5.22668,-8.96003 2.56001,-1.60001 5.65335,-2.45334 10.9867,-3.20001 10.77337,-1.49334 10.88004,-1.49334 15.57339,-3.09335 z"
     id="path4911" /><path
     d="m 695.6484,284.17613 h -8.96003 l -6.40002,29.97342 c -2.56001,-5.33335 -5.22668,-7.78669 -9.60003,-8.96002 -1.81334,-0.53334 -3.73334,-0.74667 -5.65335,-0.74667 -17.70672,0 -30.93343,16.85338 -30.93343,39.36012 0,12.48004 7.14669,20.58673 18.24006,20.58673 4.69335,0 9.49336,-1.38667 13.76004,-4.05334 3.20001,-1.92001 4.58668,-3.52002 6.08002,-6.50669 l -1.70667,8.10669 h 8.64002 z m -31.46677,28.48009 c 5.01335,0 9.49337,2.66667 11.20004,6.61335 0.96,2.24001 1.38667,4.69335 1.38667,7.78669 0,6.40002 -1.70667,12.80004 -4.90668,18.34673 -4.16001,7.14668 -9.3867,10.77336 -15.89338,10.77336 -5.22669,0 -9.17337,-2.45334 -10.98671,-6.61335 -0.96,-2.34668 -1.49333,-5.01335 -1.49333,-7.89336 0,-11.73337 5.97335,-23.78674 13.65337,-27.52009 2.24001,-1.06667 4.16002,-1.49333 7.04002,-1.49333 z"
     id="path4913" /><path
     d="m 744.18182,356.49635 c -0.96,0.21334 -1.38667,0.21334 -1.81334,0.21334 -2.24001,0 -3.62668,-0.74667 -3.94668,-2.02668 -0.10667,-0.32 -0.10667,-0.64 -0.10667,-1.06667 0,-0.32 0,-0.74666 0.10667,-1.06667 l 6.82669,-32.10676 c 0.64,-2.88001 0.64,-2.88001 0.64,-3.94668 0,-5.22668 -4.37335,-9.7067 -10.77337,-11.20004 -2.45334,-0.53333 -5.12001,-0.85333 -7.78669,-0.85333 -14.93338,0 -23.8934,6.29335 -25.92008,18.13339 h 8.96003 c 0.96,-2.98668 1.70667,-4.48002 3.20001,-5.97335 2.34667,-2.45335 6.82669,-3.94668 11.41337,-3.94668 4.80001,0 8.85336,1.6 10.56003,4.26668 0.53334,0.74667 0.74667,1.6 0.74667,2.56 0,0.42667 -0.10667,1.17334 -0.21333,2.02668 l -0.32,1.92 c -0.74667,4.16002 -3.09335,5.65335 -10.77337,6.29336 -10.6667,0.96 -15.36005,1.70667 -19.20006,3.20001 -6.93336,2.66667 -11.41337,7.36002 -13.01337,13.54671 -0.32001,1.38667 -0.53334,2.88 -0.53334,4.26668 0,6.08001 2.98668,10.6667 8.21336,12.48003 2.13334,0.74667 4.58668,1.17334 7.04002,1.17334 3.94668,0 8.21336,-0.74667 12.16004,-2.13334 3.30668,-1.17334 5.01335,-2.24001 9.3867,-6.08002 v 0.74667 0.42667 c 0,3.09334 1.6,5.54668 4.16001,6.40002 1.17334,0.42667 2.56001,0.64 3.94668,0.64 1.28,0 1.6,0 4.16001,-0.64 0.32,-0.10667 0.85334,-0.21333 1.49334,-0.32 z m -12.90671,-12.05337 c -1.38667,6.61336 -10.77336,12.26671 -20.16006,12.26671 -3.73335,0 -6.50669,-0.96001 -8.00003,-2.66668 -0.96,-1.17333 -1.49333,-2.66667 -1.49333,-4.37334 0,-3.52002 2.02667,-7.04003 5.22668,-8.96003 2.56001,-1.60001 5.65335,-2.45334 10.9867,-3.20001 10.77337,-1.49334 10.88003,-1.49334 15.57338,-3.09335 z"
     id="path4915" /><path
     d="m 801.03529,328.97627 h 24.32007 c 6.72003,0 11.73337,-1.70667 16.53339,-5.54669 6.72002,-5.33335 10.56003,-13.44004 10.56003,-22.08007 0,-11.3067 -6.61335,-17.17338 -19.73339,-17.17338 h -32.21344 l -16.53338,77.76024 h 10.0267 z m 1.81334,-8.7467 5.86668,-27.30675 h 20.6934 c 7.57336,0 11.9467,2.98668 12.69337,8.53336 0.10667,0.53334 0.10667,1.06667 0.10667,1.81334 0,3.84001 -1.17334,7.25336 -3.73334,10.45337 -3.52002,4.48001 -8.1067,6.50668 -14.93338,6.50668 z"
     id="path4917" /><path
     d="m 901.62234,336.97629 c 1.49334,-8.32002 1.81334,-10.88003 1.81334,-14.29338 0,-10.34669 -8.85336,-18.24005 -20.3734,-18.24005 -9.28003,0 -18.13339,4.37334 -23.57341,11.52003 -5.01335,6.72002 -8.96002,18.7734 -8.96002,27.52009 0,5.76002 2.56,11.6267 6.61335,15.57338 3.73334,3.62668 8.42669,5.33335 14.50671,5.33335 12.80004,0 23.78674,-7.89336 27.09342,-19.41339 h -8.96003 c -3.84001,7.36002 -9.49336,11.20003 -16.64005,11.20003 -8.42669,0 -13.22671,-5.22668 -13.22671,-14.29338 0,-2.34667 0.10667,-3.30667 0.53334,-4.90668 z m -39.25346,-7.68002 c 2.77334,-9.81337 10.6667,-16.64005 19.30673,-16.64005 6.50669,0 10.77337,3.52001 12.05337,9.92003 0.21333,1.06667 0.32,2.13334 0.32,3.20001 0,0.96 -0.10667,1.81334 -0.32,3.52001 z"
     id="path4919" /><path
     d="m 920.0757,306.04286 -11.84004,55.89351 h 8.96003 l 6.18669,-29.01342 c 2.66667,-12.58671 9.81336,-19.0934 21.0134,-19.0934 h 1.06667 l 1.92,-9.06669 -0.64,-0.10667 c -0.96,-0.10667 -1.81334,-0.21333 -2.77334,-0.21333 -6.18669,0 -10.88004,2.77334 -17.60006,10.3467 l 1.81334,-8.7467 z"
     id="path4921" /><path
     d="m 991.00918,321.61624 c 0.53334,-2.24 0.64,-3.20001 0.64,-4.58668 0,-7.46669 -7.04002,-12.5867 -17.49339,-12.5867 -7.57335,0 -14.08004,2.24 -18.45339,6.40002 -3.94668,3.73334 -6.40002,9.28003 -6.40002,14.29338 0,6.50668 3.73335,9.60003 14.72005,12.48003 l 7.89336,2.02668 c 3.52001,0.96 5.12001,1.6 6.08002,2.77334 0.74667,0.96 1.38667,2.56001 1.38667,3.52001 0,1.28 -1.06667,3.94668 -2.02668,5.22668 -1.70667,2.13334 -4.90668,3.84002 -8.74669,4.58668 -1.49334,0.32001 -2.98668,0.42667 -4.48001,0.42667 -6.40002,0 -10.13337,-2.02667 -11.20004,-5.97335 -0.21333,-0.74667 -0.32,-1.49334 -0.32,-2.24001 0,-0.64 0.10667,-1.6 0.21333,-2.66667 h -9.49336 c -0.53333,2.45334 -0.64,3.73334 -0.64,5.44002 0,6.40002 4.37335,11.09336 11.84004,12.80004 2.56,0.53333 5.22668,0.85333 8.00002,0.85333 15.89338,0 26.24008,-8.21336 26.24008,-20.90673 0,-6.50669 -3.52001,-9.92003 -12.9067,-12.26671 l -8.1067,-2.02667 c -5.01334,-1.28 -8.00002,-2.98667 -8.85336,-5.12001 -0.10666,-0.32001 -0.21333,-0.74667 -0.21333,-1.28001 0,-2.13334 1.28,-4.80001 3.20001,-6.61335 2.56001,-2.45334 5.76002,-3.52001 10.45337,-3.52001 5.01334,0 8.10669,1.49333 9.38669,4.26668 0.32,0.64 0.42667,1.38667 0.42667,2.34667 0,0.64 0,1.49334 -0.10667,2.34667 z"
     id="path4923" /><path
     d="m 1030.476,304.44286 c -16.1068,0 -26.8801,10.3467 -31.25346,29.97342 -0.74667,3.52002 -1.17334,6.82669 -1.17334,10.0267 0,11.84004 8.2134,19.94673 20.1601,19.94673 10.24,0 18.3467,-4.16001 24.32,-12.37337 4.9067,-6.72002 8.4267,-18.34672 8.4267,-27.62675 0,-8.00003 -4.16,-15.14672 -10.6667,-18.02673 -2.9866,-1.28 -5.9733,-1.92 -9.8133,-1.92 z m -1.3867,8.21336 c 5.44,0 9.8134,2.77334 11.4134,7.14669 0.7466,2.02667 1.0666,4.05334 1.0666,6.61335 0,12.16004 -5.6533,23.78674 -13.6533,27.84009 -2.56,1.28 -5.1201,1.92 -8.2134,1.92 -5.2267,0 -9.3867,-2.66667 -11.0934,-7.14669 -0.7466,-2.13334 -1.1733,-4.37334 -1.1733,-6.72002 0,-5.01335 1.1733,-10.45336 3.2,-15.46671 2.4533,-5.86669 5.8667,-9.81337 10.56,-12.26671 2.56,-1.28 5.0134,-1.92 7.8934,-1.92 z"
     id="path4925" /><path
     d="m 1068.1294,306.04286 -11.84,55.89351 h 8.96 l 6.5067,-30.82676 c 2.56,-11.73337 10.0267,-18.98673 19.6267,-18.98673 5.3333,0 9.28,3.73335 9.28,8.64003 0,0.64 -0.2133,2.13334 -0.64,3.94668 l -7.8933,37.22678 h 8.96 l 8.5334,-40.10679 c 0.32,-1.38667 0.4266,-2.66668 0.4266,-4.05335 0,-6.18668 -3.7333,-11.20003 -9.28,-12.69337 -1.6,-0.42667 -3.3067,-0.64 -5.2267,-0.64 -8.1067,0 -15.1467,2.88001 -20.6934,8.53336 l 1.3867,-6.93336 z"
     id="path4927" /><path
     d="m 1167.0097,356.49635 c -0.96,0.21334 -1.3867,0.21334 -1.8134,0.21334 -2.24,0 -3.6266,-0.74667 -3.9466,-2.02668 -0.1067,-0.32 -0.1067,-0.64 -0.1067,-1.06667 0,-0.32 0,-0.74666 0.1067,-1.06667 l 6.8266,-32.10676 c 0.64,-2.88001 0.64,-2.88001 0.64,-3.94668 0,-5.22668 -4.3733,-9.7067 -10.7733,-11.20004 -2.4534,-0.53333 -5.12,-0.85333 -7.7867,-0.85333 -14.9334,0 -23.8934,6.29335 -25.9201,18.13339 h 8.96 c 0.96,-2.98668 1.7067,-4.48002 3.2,-5.97335 2.3467,-2.45335 6.8267,-3.94668 11.4134,-3.94668 4.8,0 8.8534,1.6 10.56,4.26668 0.5334,0.74667 0.7467,1.6 0.7467,2.56 0,0.42667 -0.1067,1.17334 -0.2133,2.02668 l -0.32,1.92 c -0.7467,4.16002 -3.0934,5.65335 -10.7734,6.29336 -10.6667,0.96 -15.36,1.70667 -19.2,3.20001 -6.9334,2.66667 -11.4134,7.36002 -13.0134,13.54671 -0.32,1.38667 -0.5334,2.88 -0.5334,4.26668 0,6.08001 2.9867,10.6667 8.2134,12.48003 2.1333,0.74667 4.5867,1.17334 7.04,1.17334 3.9467,0 8.2134,-0.74667 12.1601,-2.13334 3.3066,-1.17334 5.0133,-2.24001 9.3867,-6.08002 v 0.74667 0.42667 c 0,3.09334 1.6,5.54668 4.16,6.40002 1.1733,0.42667 2.56,0.64 3.9466,0.64 1.2801,0 1.6001,0 4.1601,-0.64 0.32,-0.10667 0.8533,-0.21333 1.4933,-0.32 z m -12.9067,-12.05337 c -1.3867,6.61336 -10.7734,12.26671 -20.1601,12.26671 -3.7333,0 -6.5067,-0.96001 -8,-2.66668 -0.96,-1.17333 -1.4934,-2.66667 -1.4934,-4.37334 0,-3.52002 2.0267,-7.04003 5.2267,-8.96003 2.56,-1.60001 5.6534,-2.45334 10.9867,-3.20001 10.7734,-1.49334 10.8801,-1.49334 15.5734,-3.09335 z"
     id="path4929" /><path
     d="m 1200.1831,284.17613 h -8.96 l -16.5334,77.76024 h 8.96 z"
     id="path4931" /><path
     d="m 1302.9034,308.28287 c -0.2133,-4.58668 -0.7467,-7.25336 -1.8133,-10.45337 -2.2401,-6.40002 -7.7867,-11.73337 -14.2934,-13.65337 -2.88,-0.85334 -5.9734,-1.28001 -9.2801,-1.28001 -9.92,0 -18.9867,3.30668 -25.92,9.60003 -8.6401,7.78669 -14.8267,18.98673 -17.6001,31.78677 -0.8533,3.94668 -1.28,8.00002 -1.28,11.84004 0,12.5867 6.1867,22.9334 15.8934,26.45341 3.3067,1.17334 7.1467,1.81334 11.3067,1.81334 11.3067,0 21.1201,-4.16001 28.0534,-11.73337 4.16,-4.58668 7.5734,-10.45336 11.2001,-19.09339 h -10.4534 c -2.6667,6.08002 -4.3734,9.28003 -6.2934,11.9467 -4.48,6.29336 -12.5867,10.24003 -21.0134,10.24003 -6.4,0 -12.6933,-3.52001 -15.4667,-8.74669 -1.92,-3.62668 -2.9867,-8.00002 -2.9867,-12.80004 0,-17.38672 9.8134,-35.30678 22.2934,-40.64013 3.0934,-1.38667 6.7201,-2.02667 10.4534,-2.02667 10.7734,0 16.1067,5.22668 16.9601,16.74672 z"
     id="path4933" /><path
     d="m 1338.3169,304.44286 c -16.1067,0 -26.8801,10.3467 -31.2534,29.97342 -0.7467,3.52002 -1.1734,6.82669 -1.1734,10.0267 0,11.84004 8.2134,19.94673 20.1601,19.94673 10.24,0 18.3467,-4.16001 24.3201,-12.37337 4.9067,-6.72002 8.4267,-18.34672 8.4267,-27.62675 0,-8.00003 -4.16,-15.14672 -10.6667,-18.02673 -2.9867,-1.28 -5.9734,-1.92 -9.8134,-1.92 z m -1.3867,8.21336 c 5.4401,0 9.8134,2.77334 11.4134,7.14669 0.7467,2.02667 1.0667,4.05334 1.0667,6.61335 0,12.16004 -5.6534,23.78674 -13.6534,27.84009 -2.56,1.28 -5.12,1.92 -8.2134,1.92 -5.2266,0 -9.3867,-2.66667 -11.0933,-7.14669 -0.7467,-2.13334 -1.1734,-4.37334 -1.1734,-6.72002 0,-5.01335 1.1734,-10.45336 3.2,-15.46671 2.4534,-5.86669 5.8667,-9.81337 10.5601,-12.26671 2.56,-1.28 5.0133,-1.92 7.8933,-1.92 z"
     id="path4935" /><path
     d="m 1376.077,306.04286 -11.84,55.89351 h 8.96 l 7.4667,-35.09344 c 1.7067,-8.10669 8.96,-14.72005 16.1067,-14.72005 4.5867,0 8.1067,2.45334 8.64,5.86669 0.1067,0.42666 0.1067,0.85333 0.1067,1.49333 0,1.17334 -0.2133,2.56001 -0.4267,3.94668 l -8.2133,38.50679 h 8.96 l 7.4667,-35.09344 c 1.7067,-8.32003 9.0667,-14.72005 16.7467,-14.72005 5.0133,0 8.1067,3.09334 8.1067,8.21336 0,1.60001 0,1.60001 -0.96,5.22668 l -7.68,36.37345 h 8.96 l 8.4267,-39.78679 c 0.32,-1.17334 0.64,-4.69335 0.64,-5.86669 0,-2.88 -1.28,-5.86668 -3.4134,-8.21335 -2.3466,-2.56001 -5.12,-3.62668 -10.1333,-3.62668 -7.04,0 -13.0134,2.77334 -19.3067,8.85336 -1.0667,-3.84001 -3.3067,-6.50669 -6.5067,-7.78669 -1.8134,-0.74667 -3.9467,-1.06667 -6.4001,-1.06667 -7.36,0 -12.16,2.13334 -18.9867,8.53336 l 1.3867,-6.93336 z"
     id="path4937" /><path
     d="m 1446.6905,384.65644 h 8.9601 l 6.4,-29.97343 c 2.4533,5.22669 5.12,7.7867 9.6,8.96003 1.8134,0.53334 3.6267,0.74667 5.6534,0.74667 8.32,0 16.32,-3.84001 21.76,-10.45336 5.7601,-7.14669 9.3867,-18.13339 9.3867,-28.69343 0,-12.80004 -7.1466,-20.80006 -18.56,-20.80006 -8.32,0 -16.8534,4.58668 -19.7334,10.56003 l 1.92,-8.96003 h -8.64 z m 39.6802,-72.00022 c 5.2267,0 9.1733,2.34667 11.0933,6.61335 1.0667,2.45334 1.6,5.01335 1.6,8.10669 0,4.69335 -1.1733,10.0267 -3.2,14.93338 -2.6666,6.18669 -6.1867,10.24003 -10.6667,12.37337 -2.24,1.06667 -4.48,1.49334 -7.04,1.49334 -7.8933,0 -12.6934,-5.33335 -12.6934,-13.86671 0,-12.16004 6.0801,-24.32007 14.0801,-28.16009 2.1333,-1.06667 4.2667,-1.49333 6.8267,-1.49333 z"
     id="path4939" /><path
     d="m 1556.7709,361.93637 11.84,-55.89351 h -8.96 l -6.72,31.6801 c -2.4534,11.52004 -9.9201,18.98673 -19.0934,18.98673 -5.0134,0 -8.4267,-2.24001 -9.2801,-6.18669 -0.1066,-0.64 -0.2133,-1.38667 -0.2133,-2.02667 0,-0.85334 0.1067,-1.81334 0.32,-2.88001 l 8.4267,-39.57346 h -8.96 l -9.1734,43.09347 c -0.2133,1.06667 -0.32,2.24001 -0.32,3.62668 0,5.65335 3.52,9.81336 9.4934,11.09337 1.6,0.32 3.4133,0.53333 5.2266,0.53333 8.3201,0 14.4001,-2.56001 20.5868,-8.53336 l -1.28,6.08002 z"
     id="path4941" /><path
     d="m 1603.5977,306.04286 h -9.4934 l 3.3067,-15.36005 h -8.96 l -3.3067,15.36005 h -7.5733 l -1.4934,7.14669 h 7.5734 l -8.4267,39.46679 c -0.2133,1.06667 -0.32,2.24001 -0.32,3.30668 0,4.26668 1.8133,6.72002 5.9733,7.89336 1.1734,0.32 2.3467,0.53333 3.52,0.53333 2.2401,0 5.3334,-0.32 6.9334,-0.74667 l 1.7067,-7.78669 c -3.52,0.85334 -3.7334,0.85334 -5.12,0.85334 -2.0267,0 -3.3067,-0.74667 -3.7334,-2.13334 -0.1067,-0.32 -0.1067,-0.42667 -0.1067,-0.74667 0,-0.32 0.1067,-0.85334 0.2134,-1.49334 l 8.32,-39.14679 h 9.4934 z"
     id="path4943" /><path
     d="m 1653.0912,336.97629 c 1.4933,-8.32002 1.8133,-10.88003 1.8133,-14.29338 0,-10.34669 -8.8533,-18.24005 -20.3733,-18.24005 -9.2801,0 -18.1334,4.37334 -23.5735,11.52003 -5.0133,6.72002 -8.96,18.7734 -8.96,27.52009 0,5.76002 2.56,11.6267 6.6134,15.57338 3.7333,3.62668 8.4267,5.33335 14.5067,5.33335 12.8,0 23.7867,-7.89336 27.0934,-19.41339 h -8.96 c -3.84,7.36002 -9.4934,11.20003 -16.6401,11.20003 -8.4267,0 -13.2267,-5.22668 -13.2267,-14.29338 0,-2.34667 0.1067,-3.30667 0.5333,-4.90668 z m -39.2534,-7.68002 c 2.7733,-9.81337 10.6667,-16.64005 19.3067,-16.64005 6.5067,0 10.7733,3.52001 12.0534,9.92003 0.2133,1.06667 0.32,2.13334 0.32,3.20001 0,0.96 -0.1067,1.81334 -0.32,3.52001 z"
     id="path4945" /><path
     d="m 1671.5445,306.04286 -11.84,55.89351 h 8.96 l 6.1867,-29.01342 c 2.6667,-12.58671 9.8134,-19.0934 21.0134,-19.0934 h 1.0667 l 1.92,-9.06669 -0.64,-0.10667 c -0.96,-0.10667 -1.8134,-0.21333 -2.7734,-0.21333 -6.1867,0 -10.88,2.77334 -17.6,10.3467 l 1.8133,-8.7467 z"
     id="path4947" /><path
     d="m 1769.0382,361.93637 11.84,-55.89351 h -8.96 l -6.72,31.6801 c -2.4534,11.52004 -9.92,18.98673 -19.0934,18.98673 -5.0134,0 -8.4267,-2.24001 -9.28,-6.18669 -0.1067,-0.64 -0.2134,-1.38667 -0.2134,-2.02667 0,-0.85334 0.1067,-1.81334 0.32,-2.88001 l 8.4267,-39.57346 h -8.96 l -9.1734,43.09347 c -0.2133,1.06667 -0.32,2.24001 -0.32,3.62668 0,5.65335 3.52,9.81336 9.4934,11.09337 1.6,0.32 3.4133,0.53333 5.2267,0.53333 8.32,0 14.4,-2.56001 20.5867,-8.53336 l -1.28,6.08002 z"
     id="path4949" /><path
     d="m 1831.6516,321.61624 c 0.5334,-2.24 0.64,-3.20001 0.64,-4.58668 0,-7.46669 -7.04,-12.5867 -17.4933,-12.5867 -7.5734,0 -14.0801,2.24 -18.4534,6.40002 -3.9467,3.73334 -6.4001,9.28003 -6.4001,14.29338 0,6.50668 3.7334,9.60003 14.7201,12.48003 l 7.8933,2.02668 c 3.5201,0.96 5.1201,1.6 6.0801,2.77334 0.7466,0.96 1.3866,2.56001 1.3866,3.52001 0,1.28 -1.0666,3.94668 -2.0266,5.22668 -1.7067,2.13334 -4.9067,3.84002 -8.7467,4.58668 -1.4934,0.32001 -2.9867,0.42667 -4.48,0.42667 -6.4001,0 -10.1334,-2.02667 -11.2001,-5.97335 -0.2133,-0.74667 -0.32,-1.49334 -0.32,-2.24001 0,-0.64 0.1067,-1.6 0.2134,-2.66667 h -9.4934 c -0.5333,2.45334 -0.64,3.73334 -0.64,5.44002 0,6.40002 4.3733,11.09336 11.84,12.80004 2.56,0.53333 5.2267,0.85333 8,0.85333 15.8934,0 26.2401,-8.21336 26.2401,-20.90673 0,-6.50669 -3.52,-9.92003 -12.9067,-12.26671 l -8.1067,-2.02667 c -5.0133,-1.28 -8,-2.98667 -8.8533,-5.12001 -0.1067,-0.32001 -0.2134,-0.74667 -0.2134,-1.28001 0,-2.13334 1.28,-4.80001 3.2,-6.61335 2.5601,-2.45334 5.7601,-3.52001 10.4534,-3.52001 5.0134,0 8.1067,1.49333 9.3867,4.26668 0.32,0.64 0.4267,1.38667 0.4267,2.34667 0,0.64 0,1.49334 -0.1067,2.34667 z"
     id="path4951" /><path
     d="m 1890.2118,336.97629 c 1.4934,-8.32002 1.8134,-10.88003 1.8134,-14.29338 0,-10.34669 -8.8534,-18.24005 -20.3734,-18.24005 -9.2801,0 -18.1334,4.37334 -23.5734,11.52003 -5.0134,6.72002 -8.9601,18.7734 -8.9601,27.52009 0,5.76002 2.56,11.6267 6.6134,15.57338 3.7333,3.62668 8.4267,5.33335 14.5067,5.33335 12.8,0 23.7867,-7.89336 27.0934,-19.41339 h -8.96 c -3.84,7.36002 -9.4934,11.20003 -16.6401,11.20003 -8.4267,0 -13.2267,-5.22668 -13.2267,-14.29338 0,-2.34667 0.1067,-3.30667 0.5334,-4.90668 z m -39.2534,-7.68002 c 2.7733,-9.81337 10.6667,-16.64005 19.3067,-16.64005 6.5067,0 10.7734,3.52001 12.0534,9.92003 0.2133,1.06667 0.32,2.13334 0.32,3.20001 0,0.96 -0.1067,1.81334 -0.32,3.52001 z"
     id="path4953" /><path
     d="m 1908.6652,306.04286 -11.84,55.89351 h 8.96 l 6.1867,-29.01342 c 2.6667,-12.58671 9.8134,-19.0934 21.0134,-19.0934 h 1.0667 l 1.92,-9.06669 -0.64,-0.10667 c -0.96,-0.10667 -1.8133,-0.21333 -2.7734,-0.21333 -6.1866,0 -10.88,2.77334 -17.6,10.3467 l 1.8133,-8.7467 z"
     id="path4955" /><path
     d="m 1979.5987,321.61624 c 0.5333,-2.24 0.64,-3.20001 0.64,-4.58668 0,-7.46669 -7.0401,-12.5867 -17.4934,-12.5867 -7.5734,0 -14.0801,2.24 -18.4534,6.40002 -3.9467,3.73334 -6.4,9.28003 -6.4,14.29338 0,6.50668 3.7333,9.60003 14.72,12.48003 l 7.8934,2.02668 c 3.52,0.96 5.12,1.6 6.08,2.77334 0.7467,0.96 1.3867,2.56001 1.3867,3.52001 0,1.28 -1.0667,3.94668 -2.0267,5.22668 -1.7067,2.13334 -4.9067,3.84002 -8.7467,4.58668 -1.4933,0.32001 -2.9867,0.42667 -4.48,0.42667 -6.4,0 -10.1334,-2.02667 -11.2001,-5.97335 -0.2133,-0.74667 -0.32,-1.49334 -0.32,-2.24001 0,-0.64 0.1067,-1.6 0.2134,-2.66667 h -9.4934 c -0.5333,2.45334 -0.64,3.73334 -0.64,5.44002 0,6.40002 4.3734,11.09336 11.84,12.80004 2.5601,0.53333 5.2267,0.85333 8.0001,0.85333 15.8934,0 26.2401,-8.21336 26.2401,-20.90673 0,-6.50669 -3.5201,-9.92003 -12.9068,-12.26671 l -8.1066,-2.02667 c -5.0134,-1.28 -8.0001,-2.98667 -8.8534,-5.12001 -0.1067,-0.32001 -0.2133,-0.74667 -0.2133,-1.28001 0,-2.13334 1.28,-4.80001 3.2,-6.61335 2.56,-2.45334 5.76,-3.52001 10.4533,-3.52001 5.0134,0 8.1067,1.49333 9.3867,4.26668 0.32,0.64 0.4267,1.38667 0.4267,2.34667 0,0.64 0,1.49334 -0.1067,2.34667 z"
     id="path4957" /><path
     d="m 1999.2255,286.30947 -2.56,11.84003 -0.1067,14.29338 h 4.2667 l 5.8667,-14.29338 2.56,-11.84003 z"
     id="path4959" /><path
     d="m 2084.0257,338.5763 2.88,23.36007 h 10.88 l -10.7733,-77.76024 h -12.8001 l -44.2668,77.76024 h 10.56 l 13.1201,-23.36007 z m -1.0667,-8.32003 h -24.6401 l 20.3734,-35.52011 z"
     id="path4961" /><path
     d="m 2153.3593,321.61624 c 0.5333,-2.24 0.64,-3.20001 0.64,-4.58668 0,-7.46669 -7.04,-12.5867 -17.4934,-12.5867 -7.5734,0 -14.0801,2.24 -18.4534,6.40002 -3.9467,3.73334 -6.4,9.28003 -6.4,14.29338 0,6.50668 3.7333,9.60003 14.72,12.48003 l 7.8934,2.02668 c 3.52,0.96 5.12,1.6 6.08,2.77334 0.7467,0.96 1.3867,2.56001 1.3867,3.52001 0,1.28 -1.0667,3.94668 -2.0267,5.22668 -1.7067,2.13334 -4.9067,3.84002 -8.7467,4.58668 -1.4933,0.32001 -2.9867,0.42667 -4.48,0.42667 -6.4,0 -10.1334,-2.02667 -11.2,-5.97335 -0.2134,-0.74667 -0.32,-1.49334 -0.32,-2.24001 0,-0.64 0.1066,-1.6 0.2133,-2.66667 h -9.4934 c -0.5333,2.45334 -0.64,3.73334 -0.64,5.44002 0,6.40002 4.3734,11.09336 11.8401,12.80004 2.56,0.53333 5.2266,0.85333 8,0.85333 15.8934,0 26.2401,-8.21336 26.2401,-20.90673 0,-6.50669 -3.52,-9.92003 -12.9067,-12.26671 l -8.1067,-2.02667 c -5.0134,-1.28 -8.0001,-2.98667 -8.8534,-5.12001 -0.1067,-0.32001 -0.2133,-0.74667 -0.2133,-1.28001 0,-2.13334 1.28,-4.80001 3.2,-6.61335 2.56,-2.45334 5.76,-3.52001 10.4534,-3.52001 5.0133,0 8.1066,1.49333 9.3866,4.26668 0.3201,0.64 0.4267,1.38667 0.4267,2.34667 0,0.64 0,1.49334 -0.1066,2.34667 z"
     id="path4963" /><path
     d="m 2206.1594,321.61624 c 0.5334,-2.24 0.6401,-3.20001 0.6401,-4.58668 0,-7.46669 -7.0401,-12.5867 -17.4934,-12.5867 -7.5734,0 -14.0801,2.24 -18.4534,6.40002 -3.9467,3.73334 -6.4,9.28003 -6.4,14.29338 0,6.50668 3.7333,9.60003 14.72,12.48003 l 7.8934,2.02668 c 3.52,0.96 5.12,1.6 6.08,2.77334 0.7466,0.96 1.3866,2.56001 1.3866,3.52001 0,1.28 -1.0666,3.94668 -2.0266,5.22668 -1.7067,2.13334 -4.9067,3.84002 -8.7467,4.58668 -1.4934,0.32001 -2.9867,0.42667 -4.48,0.42667 -6.4001,0 -10.1334,-2.02667 -11.2001,-5.97335 -0.2133,-0.74667 -0.32,-1.49334 -0.32,-2.24001 0,-0.64 0.1067,-1.6 0.2134,-2.66667 h -9.4934 c -0.5333,2.45334 -0.64,3.73334 -0.64,5.44002 0,6.40002 4.3733,11.09336 11.84,12.80004 2.56,0.53333 5.2267,0.85333 8.0001,0.85333 15.8933,0 26.24,-8.21336 26.24,-20.90673 0,-6.50669 -3.52,-9.92003 -12.9067,-12.26671 l -8.1067,-2.02667 c -5.0133,-1.28 -8,-2.98667 -8.8533,-5.12001 -0.1067,-0.32001 -0.2134,-0.74667 -0.2134,-1.28001 0,-2.13334 1.2801,-4.80001 3.2001,-6.61335 2.56,-2.45334 5.76,-3.52001 10.4533,-3.52001 5.0134,0 8.1067,1.49333 9.3867,4.26668 0.32,0.64 0.4267,1.38667 0.4267,2.34667 0,0.64 0,1.49334 -0.1067,2.34667 z"
     id="path4965" /><path
     d="m 2245.6262,304.44286 c -16.1067,0 -26.88,10.3467 -31.2534,29.97342 -0.7467,3.52002 -1.1733,6.82669 -1.1733,10.0267 0,11.84004 8.2133,19.94673 20.16,19.94673 10.2401,0 18.3468,-4.16001 24.3201,-12.37337 4.9067,-6.72002 8.4267,-18.34672 8.4267,-27.62675 0,-8.00003 -4.16,-15.14672 -10.6667,-18.02673 -2.9867,-1.28 -5.9734,-1.92 -9.8134,-1.92 z m -1.3866,8.21336 c 5.44,0 9.8133,2.77334 11.4133,7.14669 0.7467,2.02667 1.0667,4.05334 1.0667,6.61335 0,12.16004 -5.6533,23.78674 -13.6534,27.84009 -2.56,1.28 -5.12,1.92 -8.2133,1.92 -5.2267,0 -9.3867,-2.66667 -11.0934,-7.14669 -0.7467,-2.13334 -1.1733,-4.37334 -1.1733,-6.72002 0,-5.01335 1.1733,-10.45336 3.2,-15.46671 2.4533,-5.86669 5.8667,-9.81337 10.56,-12.26671 2.56,-1.28 5.0134,-1.92 7.8934,-1.92 z"
     id="path4967" /><path
     d="m 2322.7465,324.81625 0.1067,-1.6 c 0.1066,-1.60001 0.2133,-2.77334 0.2133,-3.09334 0,-6.08002 -4.8,-12.48004 -10.6667,-14.50672 -2.3467,-0.74666 -4.9067,-1.17333 -7.7867,-1.17333 -9.6,0 -18.24,4.05334 -23.8934,11.41337 -5.0133,6.50668 -8.64,18.13339 -8.64,27.94675 0,8.53336 4.6933,16.42672 11.3067,19.09339 2.4533,0.96001 5.44,1.49334 8.64,1.49334 8.7467,0 16.1067,-3.09334 21.0134,-8.85336 2.7734,-3.20001 4.48,-6.82669 6.1867,-12.80004 h -8.96 c -3.2,8.74669 -9.0667,13.44004 -16.7467,13.44004 -4.4801,0 -8.3201,-2.02667 -10.1334,-5.44001 -1.28,-2.34668 -1.92,-5.12002 -1.92,-8.1067 0,-6.82668 2.24,-14.93338 5.76,-20.48006 4.0533,-6.29335 9.28,-9.49336 15.7867,-9.49336 5.44,0 9.0667,2.24 10.3467,6.40002 0.32,1.17333 0.5333,2.24 0.5333,3.41334 0,0.64 0,1.38667 -0.1066,2.34667 z"
     id="path4969" /><path
     d="m 2345.1466,306.04286 h -8.9601 l -11.84,55.89351 h 8.96 z m 4.6933,-21.86673 h -8.96 l -2.3467,10.9867 h 8.96 z"
     id="path4971" /><path
     d="m 2399.8667,356.49635 c -0.96,0.21334 -1.3866,0.21334 -1.8133,0.21334 -2.24,0 -3.6267,-0.74667 -3.9467,-2.02668 -0.1067,-0.32 -0.1067,-0.64 -0.1067,-1.06667 0,-0.32 0,-0.74666 0.1067,-1.06667 l 6.8267,-32.10676 c 0.64,-2.88001 0.64,-2.88001 0.64,-3.94668 0,-5.22668 -4.3733,-9.7067 -10.7734,-11.20004 -2.4533,-0.53333 -5.12,-0.85333 -7.7867,-0.85333 -14.9333,0 -23.8934,6.29335 -25.92,18.13339 h 8.96 c 0.96,-2.98668 1.7067,-4.48002 3.2,-5.97335 2.3467,-2.45335 6.8267,-3.94668 11.4134,-3.94668 4.8,0 8.8533,1.6 10.56,4.26668 0.5333,0.74667 0.7467,1.6 0.7467,2.56 0,0.42667 -0.1067,1.17334 -0.2134,2.02668 l -0.32,1.92 c -0.7466,4.16002 -3.0933,5.65335 -10.7733,6.29336 -10.6667,0.96 -15.3601,1.70667 -19.2001,3.20001 -6.9333,2.66667 -11.4134,7.36002 -13.0134,13.54671 -0.32,1.38667 -0.5333,2.88 -0.5333,4.26668 0,6.08001 2.9867,10.6667 8.2134,12.48003 2.1333,0.74667 4.5866,1.17334 7.04,1.17334 3.9467,0 8.2133,-0.74667 12.16,-2.13334 3.3067,-1.17334 5.0134,-2.24001 9.3867,-6.08002 v 0.74667 0.42667 c 0,3.09334 1.6,5.54668 4.16,6.40002 1.1734,0.42667 2.56,0.64 3.9467,0.64 1.28,0 1.6,0 4.16,-0.64 0.32,-0.10667 0.8534,-0.21333 1.4934,-0.32 z M 2386.96,344.44298 c -1.3867,6.61336 -10.7733,12.26671 -20.16,12.26671 -3.7334,0 -6.5067,-0.96001 -8.0001,-2.66668 -0.96,-1.17333 -1.4933,-2.66667 -1.4933,-4.37334 0,-3.52002 2.0267,-7.04003 5.2267,-8.96003 2.56,-1.60001 5.6533,-2.45334 10.9867,-3.20001 10.7733,-1.49334 10.88,-1.49334 15.5734,-3.09335 z"
     id="path4973" /><path
     d="m 2438.5868,306.04286 h -9.4933 l 3.3067,-15.36005 h -8.9601 l -3.3066,15.36005 h -7.5734 l -1.4933,7.14669 h 7.5733 l -8.4267,39.46679 c -0.2133,1.06667 -0.32,2.24001 -0.32,3.30668 0,4.26668 1.8134,6.72002 5.9734,7.89336 1.1733,0.32 2.3466,0.53333 3.52,0.53333 2.24,0 5.3333,-0.32 6.9333,-0.74667 l 1.7067,-7.78669 c -3.52,0.85334 -3.7333,0.85334 -5.12,0.85334 -2.0267,0 -3.3067,-0.74667 -3.7333,-2.13334 -0.1067,-0.32 -0.1067,-0.42667 -0.1067,-0.74667 0,-0.32 0.1067,-0.85334 0.2133,-1.49334 l 8.32,-39.14679 h 9.4934 z"
     id="path4975" /><path
     d="m 2456.4001,306.04286 h -8.96 l -11.84,55.89351 h 8.96 z m 4.6934,-21.86673 h -8.9601 l -2.3466,10.9867 h 8.96 z"
     id="path4977" /><path
     d="m 2493.2003,304.44286 c -16.1067,0 -26.8801,10.3467 -31.2534,29.97342 -0.7467,3.52002 -1.1733,6.82669 -1.1733,10.0267 0,11.84004 8.2133,19.94673 20.16,19.94673 10.2401,0 18.3468,-4.16001 24.3201,-12.37337 4.9067,-6.72002 8.4267,-18.34672 8.4267,-27.62675 0,-8.00003 -4.16,-15.14672 -10.6667,-18.02673 -2.9867,-1.28 -5.9734,-1.92 -9.8134,-1.92 z m -1.3866,8.21336 c 5.44,0 9.8133,2.77334 11.4133,7.14669 0.7467,2.02667 1.0667,4.05334 1.0667,6.61335 0,12.16004 -5.6534,23.78674 -13.6534,27.84009 -2.56,1.28 -5.12,1.92 -8.2133,1.92 -5.2267,0 -9.3867,-2.66667 -11.0934,-7.14669 -0.7467,-2.13334 -1.1733,-4.37334 -1.1733,-6.72002 0,-5.01335 1.1733,-10.45336 3.2,-15.46671 2.4533,-5.86669 5.8667,-9.81337 10.56,-12.26671 2.56,-1.28 5.0134,-1.92 7.8934,-1.92 z"
     id="path4979" /><path
     d="m 2530.8537,306.04286 -11.84,55.89351 h 8.96 l 6.5067,-30.82676 c 2.56,-11.73337 10.0267,-18.98673 19.6267,-18.98673 5.3333,0 9.28,3.73335 9.28,8.64003 0,0.64 -0.2133,2.13334 -0.64,3.94668 l -7.8933,37.22678 h 8.96 l 8.5334,-40.10679 c 0.32,-1.38667 0.4266,-2.66668 0.4266,-4.05335 0,-6.18668 -3.7333,-11.20003 -9.28,-12.69337 -1.6,-0.42667 -3.3067,-0.64 -5.2267,-0.64 -8.1067,0 -15.1467,2.88001 -20.6934,8.53336 l 1.3867,-6.93336 z"
     id="path4981" /></g></svg>
